PathFileType	3	(X/Y/Z)	C:\Users\koon_\Desktop\
DataRate	CameraRate	NumFrames	NumMarkers	Units	OrigDataRate	OrigDataStartFrame	OrigNumFrames
100.0	100.0	14	27	mm	100.0	1325	3531	
Frame#	Time	get:LFHD			get:RFHD			get:LBHD			get:RBHD			get:C7			get:T10			get:CLAV			get:STRN			get:RBAK			get:LSHO			get:LUPA			get:LELB			get:LFRA			get:LWRA			get:LWRB			get:LFIN			get:RSHO			get:RUPA			get:RELB			get:RFRA			get:RWRA			get:RWRB			get:RFIN			get:LASI			get:RASI			get:LPSI			get:RPSI			
		X1	Y1	Z1	X2	Y2	Z2	X3	Y3	Z3	X4	Y4	Z4	X5	Y5	Z5	X6	Y6	Z6	X7	Y7	Z7	X8	Y8	Z8	X9	Y9	Z9	X10	Y10	Z10	X11	Y11	Z11	X12	Y12	Z12	X13	Y13	Z13	X14	Y14	Z14	X15	Y15	Z15	X16	Y16	Z16	X17	Y17	Z17	X18	Y18	Z18	X19	Y19	Z19	X20	Y20	Z20	X21	Y21	Z21	X22	Y22	Z22	X23	Y23	Z23	X24	Y24	Z24	X25	Y25	Z25	X26	Y26	Z26	X27	Y27	Z27	
1325	13.24	47.539387	1531.1201	-6.8830519	-95.929367	1537.0685	-37.847557	75.387398	1524.9034	-142.50531	-74.196999	1525.1622	-171.3765	-8.825057	1336.652	-194.02824	-1.8479089	1122.6345	-231.89319	-7.8724875	1233.3065	-5.1263838	-8.7736464	1078.8816	34.223614	-98.92511	1262.7256	-221.77473	149.40018	1330.3115	-116.98595	217.202	1120.2485	-93.268181	259.21313	1017.776	-167.0148	261.47006	955.31366	-93.12664	259.86288	785.87463	-72.057289	317.26871	795.78705	-118.33639	326.40591	723.17316	-82.925461	-144.86469	1331.7688	-99.795059	-214.97667	1212.3921	-93.720161	-242.33159	1003.9639	-165.99257	-251.12083	872.24896	-70.922142	-261.61511	777.71185	-48.411133	-289.70593	784.35535	-117.14124	-312.96472	719.88477	-58.662415	127.82017	888.20239	-41.942829	-162.57071	908.92999	-44.294674	38.558624	929.65875	-225.00974	-48.897011	930.83136	-229.76106
1326	13.25	47.563587	1531.1683	-6.9140129	-95.880386	1537.103	-38.023994	75.725502	1524.873	-142.47273	-73.941536	1525.0693	-171.62521	-8.7558699	1336.642	-194.03227	-1.6591401	1122.7079	-232.18433	-7.8965697	1233.1498	-5.1966124	-8.9345579	1078.7238	34.031673	-98.746071	1262.583	-222.0518	149.49886	1330.2228	-116.8296	217.64424	1120.2653	-92.963295	259.34088	1017.7036	-166.82021	261.94907	955.34949	-92.890541	260.57257	786.0542	-71.289749	317.72104	795.82581	-117.94208	327.1265	723.37604	-82.432831	-144.9288	1331.2253	-99.991142	-214.60181	1211.5645	-93.66674	-240.39043	1002.7761	-165.379	-249.1235	871.29004	-70.201103	-259.04175	776.71228	-47.357494	-286.71188	782.87634	-116.31734	-309.46753	718.10449	-57.810986	127.51987	888.25793	-42.015186	-162.80988	908.93481	-44.371494	38.276665	929.75342	-225.11879	-49.17347	930.88843	-229.82005
1327	13.26	47.603897	1531.2626	-6.9864593	-95.558426	1536.8889	-39.521484	75.99012	1524.8207	-142.47699	-73.59552	1524.9877	-171.87436	-8.5821943	1336.7086	-194.04208	-1.4738071	1122.7379	-232.40579	-7.888588	1232.9664	-5.2823043	-9.0770655	1078.5319	33.853333	-98.494148	1262.4529	-222.44708	149.63112	1330.129	-116.67682	217.80614	1120.1639	-92.700424	259.42557	1017.6238	-166.71208	262.07263	955.34644	-92.671326	260.7471	786.12201	-70.613998	317.73599	795.72461	-117.52277	327.29785	723.4613	-81.779305	-144.8763	1330.619	-99.936256	-214.2549	1210.7618	-93.655312	-238.72002	1001.6083	-164.97588	-247.30568	870.36035	-69.565331	-256.51111	775.69458	-46.304012	-283.77371	781.34277	-115.46761	-305.66425	716.04718	-57.485928	127.25217	888.31012	-42.096909	-163.09494	908.94287	-44.443375	38.03474	929.83081	-225.12166	-49.433361	930.94446	-229.91786
1328	13.27	47.644306	1531.3456	-7.0164204	-95.470284	1536.9243	-39.82164	76.267265	1524.7911	-142.4485	-73.312332	1524.899	-172.09705	-8.4532976	1336.7032	-194.08234	-1.2414899	1122.7833	-232.63927	-7.9456882	1232.8521	-5.2893863	-9.289341	1078.3878	33.692425	-98.176331	1262.3372	-222.78888	149.74028	1330.0432	-116.5036	217.74324	1120.0289	-92.562851	259.48889	1017.5184	-166.56325	261.91656	955.28638	-92.504349	260.3822	786.10107	-70.048454	317.4686	795.53815	-117.05447	326.92694	723.43573	-80.962669	-144.86357	1330.0848	-100.25008	-213.9101	1210.0143	-93.643471	-236.4534	1000.6667	-164.55	-245.71455	869.58386	-68.909096	-254.30066	774.6524	-45.197258	-281.23538	779.8855	-114.47317	-302.2251	713.93146	-56.198372	126.90343	888.39221	-42.096375	-163.45338	908.93298	-44.666691	37.802738	929.90619	-225.23363	-49.661308	931.03821	-230.09119
1329	13.28	47.703594	1531.4213	-7.0733404	-95.350693	1536.9559	-40.096157	76.564987	1524.7533	-142.46732	-72.961586	1524.8859	-172.51868	-8.2535152	1336.7057	-194.15689	-1.0072184	1122.7748	-232.81259	-7.9914637	1232.7432	-5.3470993	-9.4057074	1078.2405	33.449471	-97.828705	1262.1637	-223.09068	149.81252	1329.9512	-116.32191	217.52554	1119.782	-92.491592	259.45636	1017.3781	-166.32932	261.43594	955.12793	-92.218407	259.4715	786.03461	-69.577499	316.76294	795.25238	-116.29534	326.05273	723.31421	-80.068542	-144.82716	1329.5763	-100.43077	-213.42171	1209.3093	-93.666176	-234.47841	999.70142	-164.02876	-244.4395	868.98486	-68.239037	-252.5899	773.71539	-44.151981	-279.22815	778.85858	-113.65627	-299.01584	711.7804	-55.421803	126.55449	888.4635	-42.089592	-163.81926	908.92126	-44.822262	37.655327	929.91309	-225.24574	-49.866531	931.04401	-230.18048
1330	13.29	47.8102	1531.4723	-7.1191754	-95.1614	1537.0199	-40.393326	76.702827	1524.6624	-142.47964	-72.624268	1524.8608	-172.74498	-8.0717793	1336.6692	-194.18726	-0.74138409	1122.6571	-232.82222	-8.0163336	1232.6595	-5.3607774	-9.5603762	1078.1268	33.288498	-97.364899	1261.9507	-223.43062	149.88713	1329.8737	-116.15331	217.15308	1119.5126	-92.529495	259.37274	1017.1609	-166.00999	260.77335	954.87518	-91.907104	258.26215	785.87683	-69.189476	315.77658	794.87292	-115.4974	324.82608	723.10767	-79.11824	-144.85034	1329.2423	-101.07827	-212.84688	1208.7325	-93.666618	-232.74007	998.97937	-163.53467	-243.61143	868.50531	-67.447472	-251.40662	772.78229	-43.162964	-278.00809	778.07892	-112.87655	-296.49948	709.74133	-54.460922	126.29931	888.54529	-42.129696	-164.13951	908.91821	-45.011707	37.490459	929.8847	-225.27028	-50.013878	931.0304	-230.32211
1331	13.3	47.930618	1531.4956	-7.2078996	-95.001862	1537.0929	-40.723644	77.021645	1524.6282	-142.52769	-72.293091	1524.7762	-172.83488	-7.8426905	1336.5623	-194.20787	-0.4099116	1122.6327	-233.03113	-8.0436821	1232.6124	-5.3587513	-9.6415596	1078.0343	33.074562	-96.891304	1261.7063	-223.8147	149.99216	1329.7878	-116.00018	216.64308	1119.2629	-92.588875	259.24246	1016.9171	-165.6657	259.81653	954.60199	-91.544861	256.65448	785.68298	-68.907974	314.51233	794.42505	-114.77464	323.16745	722.78436	-78.256363	-144.77612	1328.8396	-101.5634	-212.2404	1208.2633	-93.76461	-231.55376	998.46423	-163.04234	-243.25259	868.13892	-66.762749	-251.05679	771.98914	-42.394176	-277.56265	777.56116	-112.04928	-295.01712	708.09985	-53.711628	126.05908	888.63214	-42.140373	-164.41936	908.86243	-45.157604	37.351528	929.82727	-225.32469	-50.094597	930.94293	-230.3692
1332	13.31	48.033737	1531.536	-7.3401389	-94.805557	1537.1703	-41.042706	77.542183	1524.6385	-142.53946	-71.884926	1524.8441	-173.22226	-7.5133491	1336.4894	-194.30054	-0.049779605	1122.5746	-233.16257	-8.0049152	1232.5496	-5.3400083	-9.659276	1077.9578	32.975559	-96.434113	1261.5962	-224.37369	150.15627	1329.72	-115.8435	216.10603	1119.005	-92.618073	258.87781	1016.6032	-165.33104	258.67996	954.22742	-91.259254	254.82115	785.46143	-68.594391	313.05804	793.95679	-114.07373	321.2254	722.33008	-77.402161	-144.62346	1328.4774	-102.24117	-211.74805	1207.926	-93.950333	-231.04231	998.09918	-162.50729	-243.51813	867.86792	-65.841774	-251.46454	771.40759	-41.545788	-278.08606	777.30109	-111.29916	-294.8006	707.13959	-53.021496	125.82934	888.7157	-42.094505	-164.64157	908.81158	-45.291504	37.310669	929.82611	-225.504	-50.185673	930.80981	-230.42024
1333	13.32	48.161118	1531.5562	-7.4378114	-94.635925	1537.2744	-41.364059	77.918869	1524.6067	-142.61981	-71.415398	1524.8704	-173.56567	-7.1096897	1336.3771	-194.29684	0.33611059	1122.4999	-233.26245	-7.8887196	1232.4889	-5.3268709	-9.5965385	1077.8413	32.881413	-95.883842	1261.4921	-224.86954	150.32883	1329.6542	-115.67609	215.56914	1118.7157	-92.584862	258.36258	1016.2625	-165.04562	257.46808	953.85284	-90.96817	252.76003	785.16125	-68.507149	311.34167	793.44019	-113.3711	319.01407	721.79449	-76.603462	-144.28448	1328.048	-102.70059	-211.37669	1207.7418	-94.082855	-231.32178	997.73169	-161.8363	-244.71355	867.7536	-64.712425	-252.88126	771.15155	-40.574783	-279.90887	777.2998	-110.32395	-296.13394	706.71954	-51.917042	125.63397	888.82758	-42.100594	-164.81966	908.75177	-45.511753	37.315071	929.75507	-225.60103	-50.154533	930.758	-230.55287
1334	13.33	48.290104	1531.552	-7.5556259	-94.446503	1537.3004	-41.746933	78.268974	1524.5667	-142.67609	-70.982346	1524.8839	-173.95447	-6.666266	1336.2803	-194.33521	0.78612792	1122.4324	-233.45567	-7.7137508	1232.4224	-5.271522	-9.48141	1077.7522	32.813427	-95.25589	1261.4205	-225.42796	150.60892	1329.5958	-115.49581	215.03497	1118.3715	-92.564636	257.43207	1015.7236	-164.79269	256.24939	953.45148	-90.814735	250.55978	784.86322	-68.391083	309.48944	792.78418	-112.87847	316.50055	721.14087	-76.010155	-143.85063	1327.6952	-103.05421	-211.10764	1207.6044	-94.217918	-232.33659	997.38989	-161.07841	-246.99045	867.84558	-63.499413	-255.73999	771.2569	-39.436836	-283.04941	777.7334	-109.09704	-299.32285	707.01563	-50.686264	125.51176	888.89087	-42.036926	-164.94612	908.755	-45.811417	37.41227	929.68152	-225.651	-50.044933	930.67987	-230.73106
1335	13.34	48.414921	1531.5913	-7.6957016	-94.221123	1537.3083	-42.228951	78.545746	1524.4926	-142.77065	-70.770264	1525.1134	-175.23146	-6.1390238	1336.1738	-194.32954	1.2948738	1122.3461	-233.468	-7.4612517	1232.3501	-5.3141317	-9.3645763	1077.6725	32.738514	-94.629951	1261.2891	-225.83943	151.02582	1329.5632	-115.22628	214.53506	1118.0167	-92.40519	256.80423	1015.4521	-164.66893	254.96945	952.95532	-90.727486	248.3335	784.43945	-68.472946	307.4346	792.0155	-112.61244	313.86581	720.37537	-75.629532	-143.39661	1327.3441	-103.3961	-210.83572	1207.6837	-94.288612	-233.39555	997.57635	-160.39839	-250.31715	868.35297	-62.197285	-260.18942	771.81396	-38.24345	-287.72458	778.71973	-107.77563	-304.76074	708.18811	-49.332409	125.40936	888.95862	-41.98624	-165.03641	908.81989	-46.212486	37.610249	929.61603	-225.78819	-49.823803	930.6842	-230.94543
1336	13.35	48.55946	1531.6594	-7.8530955	-94.002014	1537.3176	-42.786648	78.993477	1524.4617	-142.87088	-70.231262	1524.7004	-174.84464	-5.5465603	1336.0715	-194.40428	1.846421	1122.3339	-233.59415	-7.2156367	1232.2383	-5.2964392	-9.1702738	1077.5414	32.592716	-93.995018	1261.1357	-226.15402	151.46173	1329.5212	-114.95573	214.17979	1117.6908	-92.193443	255.95418	1014.9902	-164.57907	253.681	952.42224	-90.599579	246.12521	784.00757	-68.623787	305.28006	791.17053	-112.47174	311.18881	719.51459	-75.446602	-142.80219	1327.1177	-103.81245	-210.56248	1207.9849	-94.342888	-235.16098	997.96631	-159.41586	-254.84386	869.3125	-60.85553	-266.43948	773.03125	-37.027878	-293.86798	780.30267	-106.58016	-312.57242	710.43542	-48.285332	125.40367	888.98108	-41.94313	-165.07175	908.91016	-46.576626	37.85817	929.54272	-225.83733	-49.576351	930.54297	-231.01085
1337	13.36	48.685085	1531.8091	-8.0604124	-93.77034	1537.2805	-43.276928	79.680481	1524.5422	-142.94838	-69.368942	1524.8646	-176.02357	-4.8119569	1335.96	-194.47157	2.4275584	1122.3607	-233.73126	-6.8860517	1232.1757	-5.3178763	-9.0343752	1077.4055	32.440536	-93.279213	1261.0819	-226.56906	151.98541	1329.4713	-114.74061	213.96217	1117.4469	-91.954834	255.05385	1014.4886	-164.53848	252.45004	951.8548	-90.591721	243.93121	783.53546	-68.846222	303.0032	790.19171	-112.52403	308.36011	718.48199	-75.524002	-142.04184	1326.9442	-104.18932	-210.28767	1208.5383	-94.361488	-237.5162	998.73138	-158.25165	-260.79068	870.86871	-59.664341	-274.76297	775.03027	-35.880775	-301.26807	782.69604	-105.60583	-322.77582	713.89374	-47.746201	125.43076	889.00647	-41.850559	-165.06294	909.03088	-46.928059	38.209583	929.47998	-225.94133	-49.19062	930.59375	-231.3224
1338	13.37	48.785419	1531.9697	-8.2469196	-93.555641	1537.2166	-43.821243	80.185089	1524.5942	-143.02884	-68.814819	1524.6854	-176.56937	-3.9789226	1335.8899	-194.54829	3.136914	1122.3905	-233.92072	-6.4869719	1232.1152	-5.3333545	-8.8457718	1077.3661	32.119583	-92.551689	1260.9746	-226.81172	152.58118	1329.4176	-114.45914	213.92464	1117.205	-91.626236	254.07979	1013.8925	-164.41806	251.27373	951.19104	-90.549255	241.78374	783.0979	-69.08329	300.70529	789.21808	-112.64825	305.42844	717.3457	-75.805908	-141.10405	1326.911	-104.72149	-210.05569	1209.3724	-94.48101	-240.74762	999.85211	-156.89801	-268.32452	873.24762	-58.582005	-285.13141	777.974	-34.947132	-310.0177	785.84058	-104.98392	-334.88815	718.42633	-48.336002	125.46136	888.99103	-41.836521	-165.01645	909.17609	-47.265526	38.584522	929.46594	-226.05336	-48.793907	930.56262	-231.47633
